<svg id="visual" viewBox="0 0 900 600" width="900" height="600" xmlns="http://www.w3.org/2000/svg" xmlns:xlink="http://www.w3.org/1999/xlink" version="1.1"><path d="M0 55L13.7 60C27.3 65 54.7 75 82 78C109.3 81 136.7 77 163.8 79C191 81 218 89 245.2 91C272.3 93 299.7 89 327 87C354.3 85 381.7 85 409 79C436.3 73 463.7 61 491 63C518.3 65 545.7 81 573 83C600.3 85 627.7 73 654.8 70C682 67 709 73 736.2 73C763.3 73 790.7 67 818 68C845.3 69 872.7 77 886.3 81L900 85L900 0L886.3 0C872.7 0 845.3 0 818 0C790.7 0 763.3 0 736.2 0C709 0 682 0 654.8 0C627.7 0 600.3 0 573 0C545.7 0 518.3 0 491 0C463.7 0 436.3 0 409 0C381.7 0 354.3 0 327 0C299.7 0 272.3 0 245.2 0C218 0 191 0 163.8 0C136.7 0 109.3 0 82 0C54.7 0 27.3 0 13.7 0L0 0Z" fill="#6198ff"></path><path d="M0 211L13.7 228C27.3 245 54.7 279 82 293C109.3 307 136.7 301 163.8 303C191 305 218 315 245.2 306C272.3 297 299.7 269 327 245C354.3 221 381.7 201 409 207C436.3 213 463.7 245 491 264C518.3 283 545.7 289 573 287C600.3 285 627.7 275 654.8 261C682 247 709 229 736.2 229C763.3 229 790.7 247 818 249C845.3 251 872.7 237 886.3 230L900 223L900 83L886.3 79C872.7 75 845.3 67 818 66C790.7 65 763.3 71 736.2 71C709 71 682 65 654.8 68C627.7 71 600.3 83 573 81C545.7 79 518.3 63 491 61C463.7 59 436.3 71 409 77C381.7 83 354.3 83 327 85C299.7 87 272.3 91 245.2 89C218 87 191 79 163.8 77C136.7 75 109.3 79 82 76C54.7 73 27.3 63 13.7 58L0 53Z" fill="#3c80ff"></path><path d="M0 295L13.7 310C27.3 325 54.7 355 82 364C109.3 373 136.7 361 163.8 366C191 371 218 393 245.2 401C272.3 409 299.7 403 327 389C354.3 375 381.7 353 409 344C436.3 335 463.7 339 491 350C518.3 361 545.7 379 573 376C600.3 373 627.7 349 654.8 338C682 327 709 329 736.2 336C763.3 343 790.7 355 818 360C845.3 365 872.7 363 886.3 362L900 361L900 221L886.3 228C872.7 235 845.3 249 818 247C790.7 245 763.3 227 736.2 227C709 227 682 245 654.8 259C627.7 273 600.3 283 573 285C545.7 287 518.3 281 491 262C463.7 243 436.3 211 409 205C381.7 199 354.3 219 327 243C299.7 267 272.3 295 245.2 304C218 313 191 303 163.8 301C136.7 299 109.3 305 82 291C54.7 277 27.3 243 13.7 226L0 209Z" fill="#0066ff"></path><path d="M0 343L13.7 366C27.3 389 54.7 435 82 456C109.3 477 136.7 473 163.8 478C191 483 218 497 245.2 499C272.3 501 299.7 491 327 477C354.3 463 381.7 445 409 443C436.3 441 463.7 455 491 469C518.3 483 545.7 497 573 493C600.3 489 627.7 467 654.8 450C682 433 709 421 736.2 425C763.3 429 790.7 449 818 460C845.3 471 872.7 473 886.3 474L900 475L900 359L886.3 360C872.7 361 845.3 363 818 358C790.7 353 763.3 341 736.2 334C709 327 682 325 654.8 336C627.7 347 600.3 371 573 374C545.7 377 518.3 359 491 348C463.7 337 436.3 333 409 342C381.7 351 354.3 373 327 387C299.7 401 272.3 407 245.2 399C218 391 191 369 163.8 364C136.7 359 109.3 371 82 362C54.7 353 27.3 323 13.7 308L0 293Z" fill="#0059dd"></path><path d="M0 601L13.7 601C27.3 601 54.7 601 82 601C109.3 601 136.7 601 163.8 601C191 601 218 601 245.2 601C272.3 601 299.7 601 327 601C354.3 601 381.7 601 409 601C436.3 601 463.7 601 491 601C518.3 601 545.7 601 573 601C600.3 601 627.7 601 654.8 601C682 601 709 601 736.2 601C763.3 601 790.7 601 818 601C845.3 601 872.7 601 886.3 601L900 601L900 473L886.3 472C872.7 471 845.3 469 818 458C790.7 447 763.3 427 736.2 423C709 419 682 431 654.8 448C627.7 465 600.3 487 573 491C545.7 495 518.3 481 491 467C463.7 453 436.3 439 409 441C381.7 443 354.3 461 327 475C299.7 489 272.3 499 245.2 497C218 495 191 481 163.8 476C136.7 471 109.3 475 82 454C54.7 433 27.3 387 13.7 364L0 341Z" fill="#004cbb"></path></svg>